<svg version="1.1" id="Layer_1" xmlns="http://www.w3.org/2000/svg" xmlns:xlink="http://www.w3.org/1999/xlink" x="0px" y="0px"
	 width="100%" viewBox="0 0 512 512" enable-background="new 0 0 512 512" xml:space="preserve">
<path fill="#000000" opacity="1.000000" stroke="none" 
	d="
M513.000000,180.000000 
	C513.000000,291.306274 513.000000,402.112549 513.000000,512.959412 
	C342.402039,512.959412 171.804092,512.959412 1.103063,512.959412 
	C1.103063,342.443756 1.103063,171.887421 1.103063,1.165548 
	C171.666534,1.165548 342.333252,1.165548 513.000000,1.165548 
	C513.000000,60.529209 513.000000,120.014603 513.000000,180.000000 
M501.966797,448.072296 
	C501.977600,322.274200 501.954559,196.476074 502.077576,70.678093 
	C502.085541,62.522373 501.053223,54.737537 497.966949,47.219887 
	C490.237762,28.392962 469.817230,12.013674 447.891296,12.010478 
	C322.093048,11.992144 196.294815,12.000614 70.496567,12.008185 
	C68.667213,12.008295 66.837860,12.113637 64.152046,12.019245 
	C62.658653,12.054403 61.112331,11.848130 59.680069,12.162123 
	C45.605072,15.247746 33.496483,21.813471 24.409433,33.163933 
	C17.261278,42.092556 12.094693,52.191555 12.082803,63.830704 
	C11.951241,192.613525 11.999152,321.396515 12.010983,450.179474 
	C12.011120,451.665985 12.002904,453.186981 12.290908,454.633698 
	C15.051806,468.502136 21.789913,480.096954 32.674423,489.117554 
	C41.781170,496.664764 52.219677,501.883545 64.152802,501.898651 
	C192.768936,502.061249 321.385376,502.002899 450.001709,501.970123 
	C451.774719,501.969666 453.554352,501.561493 455.319458,501.273499 
	C469.113647,499.023010 480.174805,491.961700 488.984467,481.417236 
	C496.772919,472.095093 501.824341,461.499359 501.966797,448.072296 
z"/>
<path fill="#44A2FF" opacity="1.000000" stroke="none" 
	d="
M65.008507,12.169866 
	C66.837860,12.113637 68.667213,12.008295 70.496567,12.008185 
	C196.294815,12.000614 322.093048,11.992144 447.891296,12.010478 
	C469.817230,12.013674 490.237762,28.392962 497.966949,47.219887 
	C501.053223,54.737537 502.085541,62.522373 502.077576,70.678093 
	C501.954559,196.476074 501.977600,322.274200 501.705292,448.825409 
	C497.523956,463.208954 484.852997,472.266327 468.938507,472.219421 
	C336.820129,471.830048 204.699661,471.835876 72.581177,472.205475 
	C56.134659,472.251495 41.771324,460.115570 41.829468,441.166016 
	C42.177067,327.874176 42.001526,214.580734 42.001667,101.287834 
	C42.001694,81.294968 41.912292,61.301487 42.048832,41.309555 
	C42.101612,33.581444 44.006153,26.214886 50.398479,21.250658 
	C54.902706,17.752712 60.113297,15.164346 65.008507,12.169866 
M272.046753,270.738739 
	C271.769012,268.977539 271.258057,267.217407 271.250275,265.455017 
	C271.185394,250.788757 271.213257,236.122086 271.213165,221.455551 
	C271.213135,219.174973 271.213165,216.894379 271.213165,214.336853 
	C261.504517,214.336853 252.447968,214.336853 242.785889,214.336853 
	C242.785889,222.271362 242.575211,229.902130 242.869415,237.513367 
	C243.031158,241.697906 241.611526,242.896210 237.484146,242.868591 
	C212.652145,242.702545 187.818481,242.780045 162.985382,242.799911 
	C161.065781,242.801453 159.146332,242.986633 156.858124,243.105637 
	C156.858124,251.516541 156.973328,259.332520 156.748810,267.138702 
	C156.709732,268.497223 155.275208,270.947113 154.421005,270.975739 
	C145.828461,271.263428 137.222534,271.150818 127.920822,271.150818 
	C127.920822,251.755798 127.920822,233.047928 127.920822,214.357971 
	C118.124062,214.357971 109.047096,214.357971 99.745605,214.357971 
	C99.745605,242.956467 99.745605,271.207336 99.745605,299.562683 
	C137.953598,299.562683 175.822556,299.562683 214.162766,299.562683 
	C214.162766,290.040405 214.162766,280.937653 214.162766,271.213165 
	C221.076309,271.213165 227.530991,271.168610 233.984802,271.223480 
	C243.971817,271.308350 242.693695,270.014191 242.776443,279.983612 
	C242.831009,286.556244 242.786774,293.129669 242.786774,300.133789 
	C252.699783,300.133789 261.638489,300.133789 270.773224,300.133789 
	C270.773224,309.791290 270.773224,318.979248 270.773224,328.774475 
	C251.769485,328.774475 233.188736,328.774475 214.335068,328.774475 
	C214.335068,338.444061 214.335068,347.501404 214.335068,357.259399 
	C223.860748,357.259399 233.079346,357.259399 242.968094,357.259399 
	C242.968094,376.663391 242.968094,395.376190 242.968094,414.590881 
	C251.127808,414.590881 258.610352,414.359619 266.069214,414.679504 
	C270.386688,414.864716 271.345825,413.218048 271.295197,409.208221 
	C271.095276,393.377563 271.251556,377.542694 271.180054,361.709839 
	C271.167084,358.849274 271.451447,357.037140 275.129700,357.072662 
	C291.628021,357.232056 308.129059,357.196533 324.628265,357.093750 
	C327.643341,357.074982 328.794342,358.095215 328.733063,361.127808 
	C328.598419,367.791626 328.871185,374.466461 328.631012,381.124268 
	C328.499054,384.782684 329.585419,386.055176 333.404968,386.008698 
	C349.402435,385.814117 365.403717,385.937286 381.403503,385.908783 
	C382.823853,385.906250 384.243713,385.648956 385.538879,385.522186 
	C385.538879,366.396667 385.538879,347.809418 385.538879,328.698364 
	C383.182678,328.698364 381.213318,328.698364 379.243988,328.698334 
	C364.077454,328.697968 348.909576,328.587616 333.745300,328.772858 
	C329.845062,328.820496 328.568878,327.643219 328.618988,323.677490 
	C328.816956,308.013458 328.861145,292.342773 328.597870,276.680664 
	C328.522308,272.186829 329.955688,270.932922 334.292023,271.123627 
	C341.714752,271.450073 349.162262,271.213745 357.254425,271.213745 
	C357.254425,261.404449 357.254425,252.337372 357.254425,243.274780 
	C367.144501,243.274780 376.349121,243.274780 386.085510,243.274780 
	C386.085510,262.332062 386.085510,280.915100 386.085510,299.737274 
	C395.720428,299.737274 404.809540,299.737274 414.591949,299.737274 
	C414.591949,293.876984 414.591949,288.253479 414.591949,282.629974 
	C414.591949,271.213196 414.591949,271.213165 425.770599,271.213165 
	C431.369263,271.213135 436.967957,271.213165 442.687805,271.213165 
	C442.687805,261.384888 442.687805,252.331024 442.687805,243.325577 
	C441.840515,243.106033 441.369202,242.881195 440.895874,242.876938 
	C435.396851,242.827621 429.896881,242.855026 424.398346,242.777695 
	C413.114197,242.619034 414.733276,244.392014 414.604584,232.997421 
	C414.534180,226.762207 414.591949,220.525558 414.591949,214.346222 
	C385.500031,214.346222 357.405304,214.346222 328.697235,214.346222 
	C328.697235,222.291489 328.486511,229.923569 328.780365,237.536179 
	C328.943054,241.749725 327.469330,243.020004 323.357391,242.866989 
	C315.758759,242.584274 308.142120,242.786148 299.917633,242.786148 
	C299.917633,252.538086 299.917633,261.605621 299.917633,271.072815 
	C290.498749,271.072815 281.705597,271.072815 272.046753,270.738739 
M145.500000,70.926193 
	C120.771896,70.926193 96.043793,70.926193 71.341064,70.926193 
	C71.341064,109.450867 71.341064,147.145325 71.341064,185.297562 
	C73.395287,185.297562 75.035812,185.297562 76.676338,185.297562 
	C110.975258,185.297470 145.274658,185.209976 179.572525,185.399704 
	C184.248779,185.425568 185.410202,183.957733 185.388474,179.465088 
	C185.222473,145.166977 185.302551,110.867691 185.282837,76.568779 
	C185.281830,74.816528 185.067719,73.064384 184.927505,70.926140 
	C171.755508,70.926140 159.127762,70.926140 145.500000,70.926193 
M443.073792,155.500000 
	C443.073792,127.441360 443.073792,99.382729 443.073792,71.337776 
	C404.556458,71.337776 366.862183,71.337776 328.702423,71.337776 
	C328.702423,73.387482 328.702423,75.026909 328.702423,76.666328 
	C328.702515,110.965248 328.788818,145.264633 328.601318,179.562531 
	C328.575867,184.221359 330.015503,185.411652 334.524902,185.389542 
	C368.822998,185.221329 403.122284,185.302521 437.421204,185.282944 
	C439.174377,185.281937 440.927460,185.069321 443.073853,184.929626 
	C443.073853,175.095261 443.073853,165.797638 443.073792,155.500000 
M86.503838,443.073792 
	C119.242119,443.073792 151.980408,443.073792 185.016129,443.073792 
	C185.133484,440.742920 185.286285,439.115051 185.286942,437.487122 
	C185.300781,403.188080 185.194214,368.888367 185.411377,334.590698 
	C185.443130,329.576080 183.752380,328.581909 179.128525,328.606018 
	C144.996902,328.784088 110.863922,328.697815 76.731377,328.715485 
	C74.963676,328.716400 73.196083,328.907074 71.282883,329.017822 
	C71.282883,367.186188 71.282883,404.873535 71.282883,443.073853 
	C76.255318,443.073853 80.880470,443.073853 86.503838,443.073792 
M418.500000,443.082214 
	C426.582397,443.082214 434.664764,443.082214 442.659027,443.082214 
	C442.659027,413.999084 442.659027,385.788544 442.659027,357.128601 
	C434.610107,357.128601 426.966370,357.356812 419.345612,357.037354 
	C415.211853,356.864075 414.293793,358.479584 414.336090,362.233368 
	C414.495605,376.389374 414.457275,390.548553 414.379944,404.705963 
	C414.319702,415.728607 415.757233,414.359192 404.954407,414.377930 
	C372.141724,414.434906 339.328857,414.392181 306.516083,414.413757 
	C304.437500,414.415100 302.359009,414.633820 300.332214,414.748474 
	C300.332214,424.434296 300.332214,433.513611 300.332214,443.082306 
	C339.622894,443.082306 378.561462,443.082306 418.500000,443.082214 
M243.904648,128.335251 
	C252.831146,128.335251 261.757629,128.335251 270.921265,128.335251 
	C270.921265,118.263733 270.921265,109.182381 270.921265,99.402321 
	C263.188019,99.402321 255.721710,99.150177 248.283295,99.496620 
	C243.800156,99.705414 242.513977,98.168564 242.707260,93.813171 
	C243.037018,86.382599 242.798157,78.926796 242.798157,71.295868 
	C232.889297,71.295868 223.679382,71.295868 214.391266,71.295868 
	C214.391266,109.382652 214.391266,147.092850 214.391266,185.304733 
	C221.234192,185.304733 227.704819,185.347610 234.174652,185.294693 
	C243.926331,185.214935 242.700989,186.435547 242.792191,176.879105 
	C242.944641,160.903152 243.064377,144.926865 243.904648,128.335251 
M271.202972,180.290787 
	C272.042114,181.944641 272.821503,184.996140 273.729675,185.034973 
	C282.286163,185.400711 290.864624,185.252365 299.682739,185.252365 
	C299.682739,175.535645 299.682739,166.504272 299.682739,156.907242 
	C290.800720,156.907242 282.212769,156.810547 273.634827,157.059799 
	C272.795746,157.084167 271.366425,159.213364 271.321686,160.407166 
	C271.085602,166.707672 271.205811,173.021530 271.202972,180.290787 
z"/>
<path fill="#2891FA" opacity="1.000000" stroke="none" 
	d="
M64.580276,12.094555 
	C60.113297,15.164346 54.902706,17.752712 50.398479,21.250658 
	C44.006153,26.214886 42.101612,33.581444 42.048832,41.309555 
	C41.912292,61.301487 42.001694,81.294968 42.001667,101.287834 
	C42.001526,214.580734 42.177067,327.874176 41.829468,441.166016 
	C41.771324,460.115570 56.134659,472.251495 72.581177,472.205475 
	C204.699661,471.835876 336.820129,471.830048 468.938507,472.219421 
	C484.852997,472.266327 497.523956,463.208954 501.636902,449.289673 
	C501.824341,461.499359 496.772919,472.095093 488.984467,481.417236 
	C480.174805,491.961700 469.113647,499.023010 455.319458,501.273499 
	C453.554352,501.561493 451.774719,501.969666 450.001709,501.970123 
	C321.385376,502.002899 192.768936,502.061249 64.152802,501.898651 
	C52.219677,501.883545 41.781170,496.664764 32.674423,489.117554 
	C21.789913,480.096954 15.051806,468.502136 12.290908,454.633698 
	C12.002904,453.186981 12.011120,451.665985 12.010983,450.179474 
	C11.999152,321.396515 11.951241,192.613525 12.082803,63.830704 
	C12.094693,52.191555 17.261278,42.092556 24.409433,33.163933 
	C33.496483,21.813471 45.605072,15.247746 59.680069,12.162123 
	C61.112331,11.848130 62.658653,12.054403 64.580276,12.094555 
z"/>
<path fill="#E8E9FF" opacity="1.000000" stroke="none" 
	d="
M272.479614,270.905762 
	C281.705597,271.072815 290.498749,271.072815 299.917633,271.072815 
	C299.917633,261.605621 299.917633,252.538086 299.917633,242.786148 
	C308.142120,242.786148 315.758759,242.584274 323.357391,242.866989 
	C327.469330,243.020004 328.943054,241.749725 328.780365,237.536179 
	C328.486511,229.923569 328.697235,222.291489 328.697235,214.346222 
	C357.405304,214.346222 385.500031,214.346222 414.591949,214.346222 
	C414.591949,220.525558 414.534180,226.762207 414.604584,232.997421 
	C414.733276,244.392014 413.114197,242.619034 424.398346,242.777695 
	C429.896881,242.855026 435.396851,242.827621 440.895874,242.876938 
	C441.369202,242.881195 441.840515,243.106033 442.687805,243.325577 
	C442.687805,252.331024 442.687805,261.384888 442.687805,271.213165 
	C436.967957,271.213165 431.369263,271.213135 425.770599,271.213165 
	C414.591949,271.213165 414.591949,271.213196 414.591949,282.629974 
	C414.591949,288.253479 414.591949,293.876984 414.591949,299.737274 
	C404.809540,299.737274 395.720428,299.737274 386.085510,299.737274 
	C386.085510,280.915100 386.085510,262.332062 386.085510,243.274780 
	C376.349121,243.274780 367.144501,243.274780 357.254425,243.274780 
	C357.254425,252.337372 357.254425,261.404449 357.254425,271.213745 
	C349.162262,271.213745 341.714752,271.450073 334.292023,271.123627 
	C329.955688,270.932922 328.522308,272.186829 328.597870,276.680664 
	C328.861145,292.342773 328.816956,308.013458 328.618988,323.677490 
	C328.568878,327.643219 329.845062,328.820496 333.745300,328.772858 
	C348.909576,328.587616 364.077454,328.697968 379.243988,328.698334 
	C381.213318,328.698364 383.182678,328.698364 385.538879,328.698364 
	C385.538879,347.809418 385.538879,366.396667 385.538879,385.522186 
	C384.243713,385.648956 382.823853,385.906250 381.403503,385.908783 
	C365.403717,385.937286 349.402435,385.814117 333.404968,386.008698 
	C329.585419,386.055176 328.499054,384.782684 328.631012,381.124268 
	C328.871185,374.466461 328.598419,367.791626 328.733063,361.127808 
	C328.794342,358.095215 327.643341,357.074982 324.628265,357.093750 
	C308.129059,357.196533 291.628021,357.232056 275.129700,357.072662 
	C271.451447,357.037140 271.167084,358.849274 271.180054,361.709839 
	C271.251556,377.542694 271.095276,393.377563 271.295197,409.208221 
	C271.345825,413.218048 270.386688,414.864716 266.069214,414.679504 
	C258.610352,414.359619 251.127808,414.590881 242.968094,414.590881 
	C242.968094,395.376190 242.968094,376.663391 242.968094,357.259399 
	C233.079346,357.259399 223.860748,357.259399 214.335068,357.259399 
	C214.335068,347.501404 214.335068,338.444061 214.335068,328.774475 
	C233.188736,328.774475 251.769485,328.774475 270.773224,328.774475 
	C270.773224,318.979248 270.773224,309.791290 270.773224,300.133789 
	C261.638489,300.133789 252.699783,300.133789 242.786774,300.133789 
	C242.786774,293.129669 242.831009,286.556244 242.776443,279.983612 
	C242.693695,270.014191 243.971817,271.308350 233.984802,271.223480 
	C227.530991,271.168610 221.076309,271.213165 214.162766,271.213165 
	C214.162766,280.937653 214.162766,290.040405 214.162766,299.562683 
	C175.822556,299.562683 137.953598,299.562683 99.745605,299.562683 
	C99.745605,271.207336 99.745605,242.956467 99.745605,214.357971 
	C109.047096,214.357971 118.124062,214.357971 127.920822,214.357971 
	C127.920822,233.047928 127.920822,251.755798 127.920822,271.150818 
	C137.222534,271.150818 145.828461,271.263428 154.421005,270.975739 
	C155.275208,270.947113 156.709732,268.497223 156.748810,267.138702 
	C156.973328,259.332520 156.858124,251.516541 156.858124,243.105637 
	C159.146332,242.986633 161.065781,242.801453 162.985382,242.799911 
	C187.818481,242.780045 212.652145,242.702545 237.484146,242.868591 
	C241.611526,242.896210 243.031158,241.697906 242.869415,237.513367 
	C242.575211,229.902130 242.785889,222.271362 242.785889,214.336853 
	C252.447968,214.336853 261.504517,214.336853 271.213165,214.336853 
	C271.213165,216.894379 271.213135,219.174973 271.213165,221.455551 
	C271.213257,236.122086 271.185394,250.788757 271.250275,265.455017 
	C271.258057,267.217407 271.769012,268.977539 272.479614,270.905762 
z"/>
<path fill="#E9E9FF" opacity="1.000000" stroke="none" 
	d="
M146.000000,70.926163 
	C159.127762,70.926140 171.755508,70.926140 184.927505,70.926140 
	C185.067719,73.064384 185.281830,74.816528 185.282837,76.568779 
	C185.302551,110.867691 185.222473,145.166977 185.388474,179.465088 
	C185.410202,183.957733 184.248779,185.425568 179.572525,185.399704 
	C145.274658,185.209976 110.975258,185.297470 76.676338,185.297562 
	C75.035812,185.297562 73.395287,185.297562 71.341064,185.297562 
	C71.341064,147.145325 71.341064,109.450867 71.341064,70.926193 
	C96.043793,70.926193 120.771896,70.926193 146.000000,70.926163 
M111.521286,156.880676 
	C125.183769,156.880005 138.846878,156.809723 152.508255,156.931519 
	C155.614014,156.959198 156.972076,156.205322 156.942184,152.776993 
	C156.798370,136.283325 156.810593,119.787231 156.935410,103.293266 
	C156.959473,100.113914 155.677505,99.337006 152.790573,99.351555 
	C136.296082,99.434723 119.800842,99.425446 103.306183,99.363136 
	C100.641914,99.353073 99.347229,100.144112 99.360931,103.048775 
	C99.441124,120.043076 99.401421,137.037933 99.437119,154.032532 
	C99.438774,154.822327 99.774734,155.611435 99.922844,156.260056 
	C100.446709,156.494827 100.742119,156.738373 101.042564,156.744736 
	C104.205589,156.811768 107.369423,156.840912 111.521286,156.880676 
z"/>
<path fill="#E9E9FF" opacity="1.000000" stroke="none" 
	d="
M443.073822,156.000000 
	C443.073853,165.797638 443.073853,175.095261 443.073853,184.929626 
	C440.927460,185.069321 439.174377,185.281937 437.421204,185.282944 
	C403.122284,185.302521 368.822998,185.221329 334.524902,185.389542 
	C330.015503,185.411652 328.575867,184.221359 328.601318,179.562531 
	C328.788818,145.264633 328.702515,110.965248 328.702423,76.666328 
	C328.702423,75.026909 328.702423,73.387482 328.702423,71.337776 
	C366.862183,71.337776 404.556458,71.337776 443.073792,71.337776 
	C443.073792,99.382729 443.073792,127.441360 443.073822,156.000000 
M357.119354,149.386292 
	C357.214752,157.756882 356.193268,156.841827 364.599213,156.869324 
	C377.762817,156.912384 390.926636,156.880753 404.090363,156.880753 
	C407.372864,156.880753 410.655365,156.880753 414.224701,156.880753 
	C414.384796,154.826248 414.595123,153.367615 414.597321,151.908691 
	C414.620911,136.078934 414.500092,120.247787 414.690552,104.420288 
	C414.738037,100.472885 413.485291,99.264992 409.563873,99.311073 
	C393.736267,99.497063 377.905212,99.378983 362.075439,99.402870 
	C360.617279,99.405075 359.159485,99.617760 357.119476,99.778603 
	C357.119476,116.192390 357.119476,132.304657 357.119354,149.386292 
z"/>
<path fill="#E9E9FF" opacity="1.000000" stroke="none" 
	d="
M86.004730,443.073822 
	C80.880470,443.073853 76.255318,443.073853 71.282883,443.073853 
	C71.282883,404.873535 71.282883,367.186188 71.282883,329.017822 
	C73.196083,328.907074 74.963676,328.716400 76.731377,328.715485 
	C110.863922,328.697815 144.996902,328.784088 179.128525,328.606018 
	C183.752380,328.581909 185.443130,329.576080 185.411377,334.590698 
	C185.194214,368.888367 185.300781,403.188080 185.286942,437.487122 
	C185.286285,439.115051 185.133484,440.742920 185.016129,443.073792 
	C151.980408,443.073792 119.242119,443.073792 86.004730,443.073822 
M156.856293,412.016418 
	C156.863937,395.218628 156.792603,378.420105 156.944397,361.623596 
	C156.975586,358.173248 155.937515,357.003265 152.422867,357.051971 
	C139.785324,357.227173 127.143852,357.119781 114.503868,357.119293 
	C109.716789,357.119110 104.929703,357.119263 100.064186,357.119263 
	C99.774307,358.388733 99.438957,359.176422 99.437286,359.964844 
	C99.401276,376.928864 99.471413,393.893494 99.343742,410.856689 
	C99.315155,414.654968 101.515350,414.635132 104.197929,414.629120 
	C120.164154,414.593292 136.130859,414.659027 152.096222,414.537384 
	C153.660767,414.525513 155.217407,413.473572 156.856293,412.016418 
z"/>
<path fill="#E6E8FF" opacity="1.000000" stroke="none" 
	d="
M418.000000,443.082275 
	C378.561462,443.082306 339.622894,443.082306 300.332214,443.082306 
	C300.332214,433.513611 300.332214,424.434296 300.332214,414.748474 
	C302.359009,414.633820 304.437500,414.415100 306.516083,414.413757 
	C339.328857,414.392181 372.141724,414.434906 404.954407,414.377930 
	C415.757233,414.359192 414.319702,415.728607 414.379944,404.705963 
	C414.457275,390.548553 414.495605,376.389374 414.336090,362.233368 
	C414.293793,358.479584 415.211853,356.864075 419.345612,357.037354 
	C426.966370,357.356812 434.610107,357.128601 442.659027,357.128601 
	C442.659027,385.788544 442.659027,413.999084 442.659027,443.082214 
	C434.664764,443.082214 426.582397,443.082214 418.000000,443.082275 
z"/>
<path fill="#E7E8FF" opacity="1.000000" stroke="none" 
	d="
M243.551270,128.642990 
	C243.064377,144.926865 242.944641,160.903152 242.792191,176.879105 
	C242.700989,186.435547 243.926331,185.214935 234.174652,185.294693 
	C227.704819,185.347610 221.234192,185.304733 214.391266,185.304733 
	C214.391266,147.092850 214.391266,109.382652 214.391266,71.295868 
	C223.679382,71.295868 232.889297,71.295868 242.798157,71.295868 
	C242.798157,78.926796 243.037018,86.382599 242.707260,93.813171 
	C242.513977,98.168564 243.800156,99.705414 248.283295,99.496620 
	C255.721710,99.150177 263.188019,99.402321 270.921265,99.402321 
	C270.921265,109.182381 270.921265,118.263733 270.921265,128.335251 
	C261.757629,128.335251 252.831146,128.335251 243.551270,128.642990 
z"/>
<path fill="#E7E8FF" opacity="1.000000" stroke="none" 
	d="
M271.202698,179.810760 
	C271.205811,173.021530 271.085602,166.707672 271.321686,160.407166 
	C271.366425,159.213364 272.795746,157.084167 273.634827,157.059799 
	C282.212769,156.810547 290.800720,156.907242 299.682739,156.907242 
	C299.682739,166.504272 299.682739,175.535645 299.682739,185.252365 
	C290.864624,185.252365 282.286163,185.400711 273.729675,185.034973 
	C272.821503,184.996140 272.042114,181.944641 271.202698,179.810760 
z"/>
<path fill="#47A4FF" opacity="1.000000" stroke="none" 
	d="
M111.027161,156.880615 
	C107.369423,156.840912 104.205589,156.811768 101.042564,156.744736 
	C100.742119,156.738373 100.446709,156.494827 99.922844,156.260056 
	C99.774734,155.611435 99.438774,154.822327 99.437119,154.032532 
	C99.401421,137.037933 99.441124,120.043076 99.360931,103.048775 
	C99.347229,100.144112 100.641914,99.353073 103.306183,99.363136 
	C119.800842,99.425446 136.296082,99.434723 152.790573,99.351555 
	C155.677505,99.337006 156.959473,100.113914 156.935410,103.293266 
	C156.810593,119.787231 156.798370,136.283325 156.942184,152.776993 
	C156.972076,156.205322 155.614014,156.959198 152.508255,156.931519 
	C138.846878,156.809723 125.183769,156.880005 111.027161,156.880615 
z"/>
<path fill="#47A4FF" opacity="1.000000" stroke="none" 
	d="
M357.119415,148.901611 
	C357.119476,132.304657 357.119476,116.192390 357.119476,99.778603 
	C359.159485,99.617760 360.617279,99.405075 362.075439,99.402870 
	C377.905212,99.378983 393.736267,99.497063 409.563873,99.311073 
	C413.485291,99.264992 414.738037,100.472885 414.690552,104.420288 
	C414.500092,120.247787 414.620911,136.078934 414.597321,151.908691 
	C414.595123,153.367615 414.384796,154.826248 414.224701,156.880753 
	C410.655365,156.880753 407.372864,156.880753 404.090363,156.880753 
	C390.926636,156.880753 377.762817,156.912384 364.599213,156.869324 
	C356.193268,156.841827 357.214752,157.756882 357.119415,148.901611 
z"/>
<path fill="#47A4FF" opacity="1.000000" stroke="none" 
	d="
M156.817017,412.460388 
	C155.217407,413.473572 153.660767,414.525513 152.096222,414.537384 
	C136.130859,414.659027 120.164154,414.593292 104.197929,414.629120 
	C101.515350,414.635132 99.315155,414.654968 99.343742,410.856689 
	C99.471413,393.893494 99.401276,376.928864 99.437286,359.964844 
	C99.438957,359.176422 99.774307,358.388733 100.064186,357.119263 
	C104.929703,357.119263 109.716789,357.119110 114.503868,357.119293 
	C127.143852,357.119781 139.785324,357.227173 152.422867,357.051971 
	C155.937515,357.003265 156.975586,358.173248 156.944397,361.623596 
	C156.792603,378.420105 156.863937,395.218628 156.817017,412.460388 
z"/>
</svg>